<?xml version="1.0" standalone="no"?>
<!DOCTYPE svg PUBLIC "-//W3C//DTD SVG 20010904//EN"
 "http://www.w3.org/TR/2001/REC-SVG-20010904/DTD/svg10.dtd">
<svg version="1.0" xmlns="http://www.w3.org/2000/svg"
 width="704.000000pt" height="1280.000000pt" viewBox="0 0 704.000000 1280.000000"
 preserveAspectRatio="xMidYMid meet">
<metadata>
Created by potrace 1.15, written by Peter Selinger 2001-2017
</metadata>
<g transform="translate(0.000000,1280.000000) scale(0.100000,-0.100000)"
fill="#000000" stroke="none">
<path d="M3350 12794 c-113 -7 -765 -73 -1030 -105 -727 -85 -1336 -186 -1860
-305 -192 -44 -196 -45 -230 -83 -80 -88 -162 -262 -205 -436 -25 -100 -27
-119 -21 -225 22 -370 131 -739 316 -1074 50 -90 55 -96 84 -96 31 0 338 24
441 35 565 58 1038 128 1519 226 81 17 149 29 151 27 2 -2 28 -104 59 -228 82
-333 186 -659 584 -1840 157 -464 204 -609 754 -2310 198 -616 266 -828 402
-1258 133 -420 208 -659 286 -917 10 -33 36 -118 58 -190 51 -167 251 -829
449 -1485 270 -898 429 -1426 574 -1907 77 -258 151 -502 163 -543 l22 -75 90
2 c235 7 527 81 769 197 111 53 283 154 303 179 8 10 -16 85 -99 307 -334 898
-784 2214 -1199 3510 -45 140 -108 336 -140 435 -32 99 -109 336 -169 528 -61
191 -161 503 -222 695 -107 337 -318 984 -519 1597 -365 1111 -509 1567 -770
2445 -77 261 -182 609 -232 773 -50 163 -89 298 -87 300 2 1 117 40 256 86
378 125 710 261 1393 571 l295 133 238 298 c131 164 243 311 249 327 14 37 4
75 -30 113 -28 31 -29 31 -312 75 -772 118 -1215 177 -1535 204 -135 11 -681
21 -795 14z"/>
</g>
</svg>
