<?xml version="1.0" encoding="iso-8859-1"?>
<!-- Generator: Adobe Illustrator 19.0.0, SVG Export Plug-In . SVG Version: 6.00 Build 0)  -->
<svg version="1.1" id="Layer_1"
  xmlns="http://www.w3.org/2000/svg"
  xmlns:xlink="http://www.w3.org/1999/xlink" x="0px" y="0px" viewBox="0 0 330 330" fill="rgb(236, 224, 224)" style="enable-background:new 0 0 330 330;" xml:space="preserve">
  <g id="XMLID_450_">
    <path id="XMLID_451_" d="M315,0H15C6.716,0,0,6.716,0,15v300c0,8.284,6.716,15,15,15h300c8.284,0,15-6.716,15-15V15
		C330,6.716,323.284,0,315,0z M300,300H30V30h270V300z"/>
    <path id="XMLID_454_" d="M104.25,240.75h121.5c8.284,0,15-6.716,15-15v-121.5c0-8.284-6.716-15-15-15h-121.5
		c-8.284,0-15,6.716-15,15v121.5C89.25,234.034,95.966,240.75,104.25,240.75z"/>
  </g>
  <g>
  </g>
  <g>
  </g>
  <g>
  </g>
  <g>
  </g>
  <g>
  </g>
  <g>
  </g>
  <g>
  </g>
  <g>
  </g>
  <g>
  </g>
  <g>
  </g>
  <g>
  </g>
  <g>
  </g>
  <g>
  </g>
  <g>
  </g>
  <g>
  </g>
</svg>
